<svg xmlns="http://www.w3.org/2000/svg" width="1280" height="640" viewBox="0 0 1280 640">
<rect width="1280" height="640" fill="#ffffff"/>
<rect x="0" y="0" width="14" height="640" fill="#1b2a4a"/>
<text x="80" y="196" font-family="Carlito" font-weight="bold" font-size="74" fill="#1b2a4a">Causal Inference</text>
<text x="80" y="282" font-family="Carlito" font-weight="bold" font-size="74" fill="#1b2a4a">for Software</text>
<text x="80" y="368" font-family="Carlito" font-weight="bold" font-size="74" fill="#1b2a4a">Engineering</text>
<rect x="80" y="402" width="300" height="5" rx="2.5" fill="#D62728"/>
<text x="80" y="462" font-family="Carlito" font-weight="bold" font-size="33" fill="#5b6675">FSE’26 Tutorial</text>
<text x="80" y="502" font-family="Carlito" font-size="29" fill="#5b6675">Montréal · 5 July 2026</text>
<text x="80" y="572" font-family="Carlito" font-size="24" fill="#9aa3b0">github.com/martinheyn/CI4SE_Tutorial</text>
<defs><marker id="ah" markerWidth="9" markerHeight="9" refX="7.5" refY="4" orient="auto" markerUnits="userSpaceOnUse"><path d="M0,0 L9,4 L0,8 Z" fill="#44506a"/></marker></defs>
<line x1="1037.1" y1="223.7" x2="938.1" y2="406.6" stroke="#44506a" stroke-width="3" marker-end="url(#ah)"/>
<line x1="1063.6" y1="223.3" x2="1170.9" y2="407.2" stroke="#44506a" stroke-width="3" marker-end="url(#ah)"/>
<line x1="947.0" y1="440.0" x2="1152.0" y2="440.0" stroke="#44506a" stroke-width="3" marker-end="url(#ah)"/>
<line x1="942.5" y1="425.0" x2="1023.4" y2="371.1" stroke="#44506a" stroke-width="3" marker-end="url(#ah)"/>
<line x1="1077.5" y1="365.0" x2="1158.4" y2="418.9" stroke="#44506a" stroke-width="3" marker-end="url(#ah)"/>
<circle cx="1050" cy="200" r="27" fill="#7D3C98" stroke="#5d2d72" stroke-width="2.5"/>
<circle cx="1055" cy="350" r="27" fill="#009E73" stroke="#007656" stroke-width="2.5"/>
<circle cx="920" cy="440" r="27" fill="#D62728" stroke="#a01d1e" stroke-width="2.5"/>
<circle cx="1190" cy="440" r="27" fill="#0072B2" stroke="#005585" stroke-width="2.5"/>
</svg>